<svg width="28" height="28" viewBox="0 0 28 28" fill="none" xmlns="http://www.w3.org/2000/svg">
<g clip-path="url(#clip0_3479_569)">
<path d="M14.0007 25.6668C7.55715 25.6668 2.33398 20.4437 2.33398 14.0002C2.33398 7.55666 7.55715 2.3335 14.0007 2.3335C20.4442 2.3335 25.6673 7.55666 25.6673 14.0002C25.6673 20.4437 20.4442 25.6668 14.0007 25.6668ZM14.0007 23.3335C16.476 23.3335 18.85 22.3502 20.6003 20.5998C22.3507 18.8495 23.334 16.4755 23.334 14.0002C23.334 11.5248 22.3507 9.15084 20.6003 7.4005C18.85 5.65016 16.476 4.66683 14.0007 4.66683C11.5253 4.66683 9.15133 5.65016 7.40099 7.4005C5.65065 9.15084 4.66732 11.5248 4.66732 14.0002C4.66732 16.4755 5.65065 18.8495 7.40099 20.5998C9.15133 22.3502 11.5253 23.3335 14.0007 23.3335ZM12.834 8.16683H15.1673V10.5002H12.834V8.16683ZM12.834 12.8335H15.1673V19.8335H12.834V12.8335Z" fill="black" fill-opacity="0.5"/>
</g>
<defs>
<clipPath id="clip0_3479_569">
<rect width="28" height="28" fill="white"/>
</clipPath>
</defs>
</svg>
